<?xml version="1.0" encoding="UTF-8" standalone="no"?>
<svg
   xmlns:osb="http://www.openswatchbook.org/uri/2009/osb"
   xmlns:dc="http://purl.org/dc/elements/1.1/"
   xmlns:cc="http://creativecommons.org/ns#"
   xmlns:rdf="http://www.w3.org/1999/02/22-rdf-syntax-ns#"
   xmlns:svg="http://www.w3.org/2000/svg"
   xmlns="http://www.w3.org/2000/svg"
   xmlns:xlink="http://www.w3.org/1999/xlink"
   xmlns:sodipodi="http://sodipodi.sourceforge.net/DTD/sodipodi-0.dtd"
   xmlns:inkscape="http://www.inkscape.org/namespaces/inkscape"
   version="1.1"
   width="76"
   height="76"
   viewBox="0 0 76.00 76.00"
   enable-background="new 0 0 76.00 76.00"
   xml:space="preserve"
   id="svg2"
   inkscape:version="0.91 r13725"
   sodipodi:docname="add-printer.svg"><metadata
     id="metadata10"><rdf:RDF><cc:Work
         rdf:about=""><dc:format>image/svg+xml</dc:format><dc:type
           rdf:resource="http://purl.org/dc/dcmitype/StillImage" /><dc:title></dc:title></cc:Work></rdf:RDF></metadata><defs
     id="defs8"><linearGradient
       id="linearGradient6437"
       osb:paint="solid"><stop
         style="stop-color:#000000;stop-opacity:1;"
         offset="0"
         id="stop6439" /></linearGradient><linearGradient
       id="linearGradient6419"
       osb:paint="solid"><stop
         style="stop-color:#ff00ff;stop-opacity:0;"
         offset="0"
         id="stop6421" /></linearGradient><linearGradient
       id="linearGradient6328"
       osb:paint="solid"><stop
         style="stop-color:#000000;stop-opacity:1;"
         offset="0"
         id="stop6330" /></linearGradient><linearGradient
       id="linearGradient5625"
       osb:paint="solid"><stop
         style="stop-color:#000000;stop-opacity:1;"
         offset="0"
         id="stop5627" /></linearGradient><linearGradient
       id="linearGradient4151"
       osb:paint="solid"><stop
         style="stop-color:#ffffff;stop-opacity:0.94117647;"
         offset="0"
         id="stop4153" /></linearGradient><pattern
       patternUnits="userSpaceOnUse"
       width="17.482927"
       height="17.476135"
       patternTransform="translate(51.478875,32.160236)"
       id="pattern6307"><rect
         y="0"
         x="6.5181193"
         height="17.476135"
         width="4.3976431"
         id="rect3340"
         style="display:inline;fill:#000000;fill-opacity:1;fill-rule:nonzero;stroke:none" /><rect
         transform="matrix(-0.00154927,-0.9999988,0.9999988,-0.00154927,0,0)"
         y="-0.010164704"
         x="-10.958599"
         height="17.476135"
         width="4.3976431"
         id="rect3340-6"
         style="display:inline;fill:#000000;fill-opacity:1;fill-rule:nonzero;stroke:none" /></pattern><linearGradient
       inkscape:collect="always"
       xlink:href="#linearGradient6437"
       id="linearGradient6521"
       x1="12.002032"
       y1="11.000119"
       x2="20.012529"
       y2="11.000119"
       gradientUnits="userSpaceOnUse" /><linearGradient
       inkscape:collect="always"
       xlink:href="#linearGradient6437"
       id="linearGradient6527"
       x1="12.002032"
       y1="11.000119"
       x2="20.012529"
       y2="11.000119"
       gradientUnits="userSpaceOnUse" /></defs><sodipodi:namedview
     pagecolor="#ffffff"
     bordercolor="#666666"
     borderopacity="1"
     objecttolerance="10"
     gridtolerance="10"
     guidetolerance="10"
     inkscape:pageopacity="0"
     inkscape:pageshadow="2"
     inkscape:window-width="2303"
     inkscape:window-height="1535"
     id="namedview6"
     showgrid="false"
     inkscape:zoom="8.7830105"
     inkscape:cx="-20.231937"
     inkscape:cy="36.722648"
     inkscape:window-x="1054"
     inkscape:window-y="289"
     inkscape:window-maximized="0"
     inkscape:current-layer="layer1" /><g
     inkscape:groupmode="layer"
     id="layer1"
     inkscape:label="Layer 1"
     style="display:inline"><path
       style="fill:#000000;fill-opacity:1;stroke-width:0.2;stroke-linejoin:round"
       d="m 14.578946,27.5 0,-10 25.999998,0 0,10 -4,0 0,-6 -18,0 0,6 -3.999998,0 z m -8.9999924,1 43.9999904,0 0,23 -8,0 0,-5 3,0 0,-13 -33.999991,0 0,13 2.999995,0 0,5 -7.9999944,0 0,-23 z m 8.9999924,11 2.999998,0 0,13 7,0 0,7 13,0 0,-20 3,0 0,23 -18,0 -7.999998,-8 0,-15 z m 20.999998,16 -8,0 0,-3 8,0 0,3 z m 0,-6 -16,0 0,-3 16,0 0,3 z m 0,-6 -16,0 0,-3 16,0 0,3 z"
       id="path4"
       inkscape:connector-curvature="0" /></g><g
     inkscape:groupmode="layer"
     id="layer2"
     inkscape:label="Layer 2"><g
       id="g4173"
       style="display:inline;fill:#000000;fill-opacity:1"
       transform="matrix(3.6043917,0,0,3.6043917,-0.1329943,-19.21786)"><rect
         y="6.9964261"
         x="14.988566"
         height="8.0073853"
         width="2.0149548"
         id="rect3340-7"
         style="display:inline;fill:#000000;fill-opacity:1" /><rect
         transform="matrix(-0.00154927,-0.9999988,0.9999988,-0.00154927,0,0)"
         y="11.986521"
         x="-12.036129"
         height="8.0073853"
         width="2.0149548"
         id="rect3340-6-0"
         style="display:inline;fill:#000000;fill-opacity:1" /></g></g></svg>