<?xml version="1.0" encoding="UTF-8" standalone="no"?>
<!-- Generator: Adobe Illustrator 18.1.1, SVG Export Plug-In . SVG Version: 6.00 Build 0)  -->

<svg
   xmlns:dc="http://purl.org/dc/elements/1.1/"
   xmlns:cc="http://creativecommons.org/ns#"
   xmlns:rdf="http://www.w3.org/1999/02/22-rdf-syntax-ns#"
   xmlns:svg="http://www.w3.org/2000/svg"
   xmlns="http://www.w3.org/2000/svg"
   xmlns:sodipodi="http://sodipodi.sourceforge.net/DTD/sodipodi-0.dtd"
   xmlns:inkscape="http://www.inkscape.org/namespaces/inkscape"
   version="1.1"
   id="Classic_computer"
   x="0px"
   y="0px"
   viewBox="0 0 20 20"
   enable-background="new 0 0 20 20"
   xml:space="preserve"
   inkscape:version="0.91 r13725"
   sodipodi:docname="add-computer.svg"><metadata
     id="metadata9"><rdf:RDF><cc:Work
         rdf:about=""><dc:format>image/svg+xml</dc:format><dc:type
           rdf:resource="http://purl.org/dc/dcmitype/StillImage" /></cc:Work></rdf:RDF></metadata><defs
     id="defs7" /><sodipodi:namedview
     pagecolor="#ffffff"
     bordercolor="#666666"
     borderopacity="1"
     objecttolerance="10"
     gridtolerance="10"
     guidetolerance="10"
     inkscape:pageopacity="0"
     inkscape:pageshadow="2"
     inkscape:window-width="1369"
     inkscape:window-height="912"
     id="namedview5"
     showgrid="false"
     inkscape:zoom="11.8"
     inkscape:cx="10"
     inkscape:cy="10"
     inkscape:window-x="954"
     inkscape:window-y="431"
     inkscape:window-maximized="0"
     inkscape:current-layer="Classic_computer" /><g
     id="g4147"
     transform="translate(-0.54022358,0.37100913)"><path
       inkscape:connector-curvature="0"
       id="path3"
       d="m 10.290254,6.1567797 -7.105932,0 C 2.5329448,6.1567797 2,6.689132 2,7.3411016 l 0,8.8824154 c 0,0.326872 0.2646959,0.592161 0.5921611,0.592161 l 0,1.184322 8.2902539,0 0,-1.184322 c 0.327465,0 0.592161,-0.265289 0.592161,-0.592161 l 0,-8.8824154 c 0,-0.6519696 -0.532352,-1.1843219 -1.184322,-1.1843219 z m -1.1843218,8.8824153 -2.3686441,0 0,-0.592161 2.3686441,0 0,0.592161 z m 0.5921611,-2.368643 -5.9216102,0 0,-4.7372895 5.9216102,0 0,4.7372895 z" /><g
       transform="matrix(0.91298149,0,0,0.91298149,0.8093784,-5.1296258)"
       style="display:inline;fill:#000000;fill-opacity:1"
       id="g4173"><rect
         style="display:inline;fill:#000000;fill-opacity:1"
         id="rect3340"
         width="2.0149548"
         height="8.0073853"
         x="14.988566"
         y="6.9964261" /><rect
         style="display:inline;fill:#000000;fill-opacity:1"
         id="rect3340-6"
         width="2.0149548"
         height="8.0073853"
         x="-12.036129"
         y="11.986521"
         transform="matrix(-0.00154927,-0.9999988,0.9999988,-0.00154927,0,0)" /></g></g></svg>