<?xml version="1.0" encoding="UTF-8" standalone="no"?>
<!-- Generator: Adobe Illustrator 18.1.0, SVG Export Plug-In . SVG Version: 6.00 Build 0)  -->

<svg
   xmlns:dc="http://purl.org/dc/elements/1.1/"
   xmlns:cc="http://creativecommons.org/ns#"
   xmlns:rdf="http://www.w3.org/1999/02/22-rdf-syntax-ns#"
   xmlns:svg="http://www.w3.org/2000/svg"
   xmlns="http://www.w3.org/2000/svg"
   xmlns:sodipodi="http://sodipodi.sourceforge.net/DTD/sodipodi-0.dtd"
   xmlns:inkscape="http://www.inkscape.org/namespaces/inkscape"
   version="1.1"
   id="Globe"
   x="0px"
   y="0px"
   viewBox="0 0 20 20"
   enable-background="new 0 0 20 20"
   xml:space="preserve"
   inkscape:version="0.91 r13725"
   sodipodi:docname="dnsmgr.svg"><metadata
     id="metadata9"><rdf:RDF><cc:Work
         rdf:about=""><dc:format>image/svg+xml</dc:format><dc:type
           rdf:resource="http://purl.org/dc/dcmitype/StillImage" /></cc:Work></rdf:RDF></metadata><defs
     id="defs7" /><sodipodi:namedview
     pagecolor="#ffffff"
     bordercolor="#666666"
     borderopacity="1"
     objecttolerance="10"
     gridtolerance="10"
     guidetolerance="10"
     inkscape:pageopacity="0"
     inkscape:pageshadow="2"
     inkscape:window-width="1944"
     inkscape:window-height="1298"
     id="namedview5"
     showgrid="false"
     inkscape:zoom="33.37544"
     inkscape:cx="8.7616468"
     inkscape:cy="9.1364523"
     inkscape:window-x="571"
     inkscape:window-y="467"
     inkscape:window-maximized="0"
     inkscape:current-layer="layer1" /><g
     inkscape:groupmode="layer"
     id="layer3"
     inkscape:label="Layer 3"
     style="display:inline" /><g
     inkscape:groupmode="layer"
     id="layer2"
     inkscape:label="Layer 2"
     style="display:inline" /><g
     inkscape:groupmode="layer"
     id="layer1"
     inkscape:label="Layer 1"
     style="display:inline"><g
       id="g3411"
       transform="translate(0,0.03293839)"><g
         transform="translate(0.1198483,0)"
         id="g3402"><path
           inkscape:connector-curvature="0"
           d="m 9.3441817,7.3638818 -2.2149009,0 c -0.2030328,0 -0.3691504,0.1659336 -0.3691504,0.3691507 l 0,2.7686265 c 0,0.101886 0.082505,0.184576 0.1845751,0.184576 l 0,0.36915 2.5840512,0 0,-0.36915 c 0.1020706,0 0.1845751,-0.08269 0.1845751,-0.184576 l 0,-2.7686265 c 0,-0.2032171 -0.1659329,-0.3691507 -0.3691501,-0.3691507 z m -0.36915,2.7686272 -0.7383002,0 0,-0.1845754 0.7383002,0 0,0.1845754 z m 0.184575,-0.7383005 -1.8457509,0 0,-1.476601 1.8457509,0 0,1.476601 z"
           id="path3-5-6" /><path
           inkscape:connector-curvature="0"
           d="m 12.631023,7.3638815 -2.214901,0 c -0.203033,0 -0.36915,0.1659342 -0.36915,0.3691513 l 0,2.7686262 c 0,0.101886 0.08251,0.184576 0.184575,0.184576 l 0,0.36915 2.584051,0 0,-0.36915 c 0.10207,0 0.184575,-0.08269 0.184575,-0.184576 l 0,-2.7686262 c 0,-0.2032171 -0.165933,-0.3691513 -0.36915,-0.3691513 z m -0.36915,2.7686275 -0.738301,0 0,-0.1845751 0.738301,0 0,0.1845751 z m 0.184575,-0.7383002 -1.845751,0 0,-1.476601 1.845751,0 0,1.476601 z"
           id="path3-5-6-4" /></g><g
         transform="translate(0.0599243,-0.0789415)"
         id="g3406"><path
           inkscape:connector-curvature="0"
           d="m 7.7478457,11.562344 -2.2149009,0 c -0.2030328,0 -0.3691504,0.165933 -0.3691504,0.369151 l 0,2.768626 c 0,0.101886 0.082505,0.184576 0.1845751,0.184576 l 0,0.36915 2.5840512,0 0,-0.36915 c 0.1020706,0 0.1845751,-0.08269 0.1845751,-0.184576 l 0,-2.768626 c 0,-0.203218 -0.1659329,-0.369151 -0.3691501,-0.369151 z m -0.36915,2.768627 -0.7383002,0 0,-0.184575 0.7383002,0 0,0.184575 z m 0.184575,-0.7383 -1.8457509,0 0,-1.476601 1.8457509,0 0,1.476601 z"
           id="path3-5-6-6" /><path
           inkscape:connector-curvature="0"
           d="m 11.047526,11.562343 -2.2149011,0 c -0.2030328,0 -0.36915,0.165934 -0.36915,0.369152 l 0,2.768626 c 0,0.101886 0.082506,0.184576 0.184575,0.184576 l 0,0.36915 2.5840511,0 0,-0.36915 c 0.10207,0 0.184575,-0.08269 0.184575,-0.184576 l 0,-2.768626 c 0,-0.203218 -0.165933,-0.369152 -0.36915,-0.369152 z m -0.36915,2.768628 -0.7383013,0 0,-0.184575 0.7383013,0 0,0.184575 z m 0.184575,-0.7383 -1.8457514,0 0,-1.476601 1.8457514,0 0,1.476601 z"
           id="path3-5-6-4-6" /><path
           inkscape:connector-curvature="0"
           d="m 14.347207,11.562344 -2.214902,0 c -0.203033,0 -0.36915,0.165933 -0.36915,0.36915 l 0,2.768627 c 0,0.101885 0.08251,0.184575 0.184575,0.184575 l 0,0.369151 2.584052,0 0,-0.369151 c 0.102071,0 0.184575,-0.08269 0.184575,-0.184575 l 0,-2.768627 c 0,-0.203217 -0.165933,-0.36915 -0.36915,-0.36915 z m -0.36915,2.768627 -0.738301,0 0,-0.184575 0.738301,0 0,0.184575 z m 0.184575,-0.738301 -1.845752,0 0,-1.476601 1.845752,0 0,1.476601 z"
           id="path3-5-3" /></g><path
         inkscape:connector-curvature="0"
         id="path3"
         d="m 10.000163,0.63969721 c -1.725384,0 -3.128501,1.40344279 -3.128501,3.12817519 0,1.7247325 1.403117,3.1281752 3.128501,3.1281752 1.724733,0 3.128175,-1.4034427 3.128175,-3.1281752 0,-1.7247324 -1.403442,-3.12817519 -3.128175,-3.12817519 z m 2.668074,3.12817519 c 0,0.6103201 -0.207243,1.1730658 -0.552645,1.622741 C 12.017832,5.3143644 11.91389,5.1081 12.011643,4.8943413 12.110383,4.6792793 12.136114,4.1813782 12.113303,3.9874964 12.091801,3.7939405 11.991108,3.3276469 11.717719,3.323085 11.444655,3.3191684 11.257291,3.2289145 11.095017,2.9050174 10.758412,2.2311563 11.726843,2.1017932 11.390238,1.729019 11.296068,1.6240951 10.809245,2.1597949 10.737883,1.4458541 c -0.0045,-0.051159 0.044,-0.1277342 0.109493,-0.2072418 1.057063,0.3551783 1.820861,1.3545652 1.820861,2.5292601 z M 9.6335803,1.1261935 C 9.5697133,1.2506688 9.4012484,1.3011758 9.2989306,1.3946953 9.076048,1.5963974 8.9802478,1.5683743 8.8603343,1.76193 8.7394435,1.9554859 8.3497249,2.234089 8.3497249,2.3742052 c 0,0.1401162 0.1968142,0.3049971 0.2952215,0.2730636 0.098407,-0.032585 0.3581109,-0.03063 0.5106095,0.02281 0.1528243,0.054092 1.2753831,0.108183 0.9175981,1.0570627 -0.1133967,0.3017387 -0.6103197,0.2509058 -0.7426157,0.7504364 -0.019877,0.073317 -0.088632,0.3864599 -0.092867,0.4887773 -0.00815,0.1583639 0.1120932,0.755324 -0.040731,0.755324 -0.153476,0 -0.5663302,-0.5340708 -0.5663302,-0.6308487 0,-0.096778 -0.1068795,-0.4359895 -0.1068795,-0.726649 0,-0.2903338 -0.4946428,-0.2857719 -0.4946428,-0.6719059 0,-0.3480096 0.2681759,-0.5213626 0.2078935,-0.6885245 C 8.1780012,2.8375662 7.7068196,2.8320267 7.510331,2.811498 7.8534528,1.9215973 8.6605874,1.2610961 9.6335803,1.1261935 Z M 9.1607695,6.2997392 c 0.1603189,-0.084722 0.1766118,-0.1942075 0.3219409,-0.199747 0.166185,-0.00749 0.301413,-0.064845 0.488778,-0.1062273 0.1661836,-0.036169 0.4636876,-0.2049607 0.7253456,-0.2264668 0.220927,-0.017923 0.656591,0.011406 0.773897,0.2245117 -0.421977,0.2805581 -0.928024,0.4441357 -1.4708936,0.4441357 -0.29294,0 -0.575128,-0.048553 -0.8390679,-0.1362061 z" /><g
         transform="translate(-0.00175785,0)"
         id="g3394"><path
           inkscape:connector-curvature="0"
           d="m 16.111131,15.602922 -2.214902,0 c -0.203033,0 -0.36915,0.165933 -0.36915,0.36915 l 0,2.768628 c 0,0.101885 0.0825,0.184575 0.184575,0.184575 l 0,0.369151 2.584052,0 0,-0.369151 c 0.102067,0 0.184575,-0.08269 0.184575,-0.184575 l 0,-2.768628 c 0,-0.203217 -0.165933,-0.36915 -0.36915,-0.36915 z m -0.369151,2.768627 -0.7383,0 0,-0.184575 0.7383,0 0,0.184575 z m 0.184576,-0.7383 -1.845752,0 0,-1.476601 1.845752,0 0,1.476601 z"
           id="path3-5" /><path
           inkscape:connector-curvature="0"
           d="m 6.107286,15.602923 -2.2149009,0 c -0.2030328,0 -0.3691504,0.165934 -0.3691504,0.369151 l 0,2.768626 c 0,0.101886 0.082505,0.184576 0.1845751,0.184576 l 0,0.36915 2.5840512,0 0,-0.36915 c 0.1020706,0 0.1845751,-0.08269 0.1845751,-0.184576 l 0,-2.768626 c 0,-0.203217 -0.1659329,-0.369151 -0.3691501,-0.369151 z m -0.36915,2.768626 -0.7383002,0 0,-0.184574 0.7383002,0 0,0.184574 z m 0.184575,-0.738299 -1.8457509,0 0,-1.476601 1.8457509,0 0,1.476601 z"
           id="path3-5-6-6-5" /><path
           inkscape:connector-curvature="0"
           d="m 9.4419005,15.602922 -2.2149007,0 c -0.2030328,0 -0.36915,0.165935 -0.36915,0.369152 l 0,2.768626 c 0,0.101886 0.082506,0.184576 0.184575,0.184576 l 0,0.36915 2.5840508,0 0,-0.36915 c 0.1020705,0 0.184575,-0.08269 0.184575,-0.184576 l 0,-2.768626 c 0,-0.203217 -0.1659329,-0.369152 -0.3691501,-0.369152 z m -0.36915,2.768628 -0.7383009,0 0,-0.184575 0.7383009,0 0,0.184575 z m 0.184575,-0.7383 -1.845751,0 0,-1.476601 1.845751,0 0,1.476601 z"
           id="path3-5-6-4-6-7" /><path
           inkscape:connector-curvature="0"
           d="m 12.776516,15.602923 -2.214902,0 c -0.203032,0 -0.36915,0.165933 -0.36915,0.36915 l 0,2.768627 c 0,0.101884 0.08251,0.184574 0.184575,0.184574 l 0,0.369151 2.584052,0 0,-0.369151 c 0.102071,0 0.184575,-0.08269 0.184575,-0.184574 l 0,-2.768627 c 0,-0.203217 -0.165933,-0.36915 -0.36915,-0.36915 z m -0.36915,2.768626 -0.738301,0 0,-0.184574 0.738301,0 0,0.184574 z m 0.184575,-0.738301 -1.845752,0 0,-1.4766 1.845752,0 0,1.4766 z"
           id="path3-5-3-9" /></g></g></g></svg>