<?xml version="1.0" encoding="UTF-8" standalone="no"?>
<svg
   xmlns:dc="http://purl.org/dc/elements/1.1/"
   xmlns:cc="http://creativecommons.org/ns#"
   xmlns:rdf="http://www.w3.org/1999/02/22-rdf-syntax-ns#"
   xmlns:svg="http://www.w3.org/2000/svg"
   xmlns="http://www.w3.org/2000/svg"
   xmlns:sodipodi="http://sodipodi.sourceforge.net/DTD/sodipodi-0.dtd"
   xmlns:inkscape="http://www.inkscape.org/namespaces/inkscape"
   width="1792"
   height="1792"
   viewBox="0 0 1792 1792"
   id="svg2"
   version="1.1"
   inkscape:version="0.91 r13725"
   sodipodi:docname="search-groups.svg">
  <metadata
     id="metadata10">
    <rdf:RDF>
      <cc:Work
         rdf:about="">
        <dc:format>image/svg+xml</dc:format>
        <dc:type
           rdf:resource="http://purl.org/dc/dcmitype/StillImage" />
        <dc:title />
      </cc:Work>
    </rdf:RDF>
  </metadata>
  <defs
     id="defs8" />
  <sodipodi:namedview
     pagecolor="#ffffff"
     bordercolor="#666666"
     borderopacity="1"
     objecttolerance="10"
     gridtolerance="10"
     guidetolerance="10"
     inkscape:pageopacity="0"
     inkscape:pageshadow="2"
     inkscape:window-width="1369"
     inkscape:window-height="840"
     id="namedview6"
     showgrid="false"
     inkscape:zoom="0.13169643"
     inkscape:cx="-1723.661"
     inkscape:cy="896.00002"
     inkscape:window-x="2130"
     inkscape:window-y="887"
     inkscape:window-maximized="0"
     inkscape:current-layer="svg2" />
  <path
     d="M 1216,768 Q 1216,583 1084.5,451.5 953,320 768,320 583,320 451.5,451.5 320,583 320,768 320,953 451.5,1084.5 583,1216 768,1216 953,1216 1084.5,1084.5 1216,953 1216,768 Z m 512,832 q 0,52 -38,90 -38,38 -90,38 -54,0 -90,-38 L 1167,1348 Q 988,1472 768,1472 625,1472 494.5,1416.5 364,1361 269.5,1266.5 175,1172 119.5,1041.5 64,911 64,768 64,625 119.5,494.5 175,364 269.5,269.5 364,175 494.5,119.5 625,64 768,64 q 143,0 273.5,55.5 130.5,55.5 225,150 94.5,94.5 150,225 55.5,130.5 55.5,273.5 0,220 -124,399 l 343,343 q 37,37 37,90 z"
     id="path4"
     inkscape:connector-curvature="0" />
  <path
     inkscape:connector-curvature="0"
     d="m 990.90676,1018.9954 c 0,-75.76083 -73.77065,-114.31581 -145.61838,-145.28124 -71.61185,-30.83051 -94.48175,-56.80369 -94.48175,-112.4605 0,-33.36036 21.85796,-22.49885 31.43768,-83.68761 4.04777,-25.36602 23.34204,-0.40478 27.05252,-58.32159 0,-23.07229 -10.55782,-28.80663 -10.55782,-28.80663 0,0 5.36322,-34.16991 7.45458,-60.48041 2.15877,-27.55855 -13.4251,-86.35239 -77.61594,-104.39869 -11.19883,-11.50241 -18.78841,-29.75109 15.75256,-48.03351 -75.55834,-3.50807 -93.13241,36.02513 -133.37398,65.1016 -34.23736,25.50094 -43.47977,65.87744 -41.82693,87.36434 2.19253,26.31049 7.5221,60.48041 7.5221,60.48041 0,0 -10.59165,5.73434 -10.59165,28.80661 3.71044,57.95055 23.07227,32.95559 27.08632,58.3216 9.57971,61.18876 31.47139,50.32724 31.47139,83.6876 0,55.65682 -7.15107,74.54641 -78.79657,105.37691 -71.88161,30.9317 -94.24553,80.51687 -93.87448,152.33111 0.1012,21.4869 -0.37105,29.3801 -0.37105,29.3801 l 539.7024,0 c 0,0 -0.371,-7.8932 -0.371,-29.3801 z m 85.64404,-194.4279 c -38.2852,-15.41524 -54.1388,-33.79887 -54.1388,-69.68907 0,-21.62184 14.0997,-14.57198 20.3062,-54.07145 2.5974,-16.32599 15.0779,-0.26984 17.4729,-37.61051 0,-14.87556 -6.8137,-18.586 -6.8137,-18.586 0,0 3.4743,-22.1278 4.8236,-39.09471 1.6865,-21.14958 -12.2784,-75.79446 -76.50294,-75.79446 -64.19074,0 -78.1894,54.64488 -76.53648,75.79446 1.41671,16.93316 4.85737,39.09471 4.85737,39.09471 0,0 -6.81391,3.67672 -6.81391,18.586 2.39498,37.34067 14.87554,21.28452 17.47294,37.61051 6.20666,39.53321 20.30635,32.48335 20.30635,54.07145 0,35.8902 -14.77434,52.68845 -61.02009,72.58997 -2.32757,0.97822 -4.0479,2.29374 -6.17287,3.44061 55.31945,24.01676 142.54903,65.47265 163.19253,150.00363 l 89.2195,0 c 0,0 0,-64.29213 0,-78.18948 0,-33.73141 -9.2085,-61.86339 -49.6526,-78.15566 z"
     id="path3" />
</svg>
