<?xml version="1.0" encoding="UTF-8" standalone="no"?>
<svg
   xmlns:dc="http://purl.org/dc/elements/1.1/"
   xmlns:cc="http://creativecommons.org/ns#"
   xmlns:rdf="http://www.w3.org/1999/02/22-rdf-syntax-ns#"
   xmlns:svg="http://www.w3.org/2000/svg"
   xmlns="http://www.w3.org/2000/svg"
   xmlns:sodipodi="http://sodipodi.sourceforge.net/DTD/sodipodi-0.dtd"
   xmlns:inkscape="http://www.inkscape.org/namespaces/inkscape"
   width="1792"
   height="1792"
   viewBox="0 0 1792 1792"
   id="svg2"
   version="1.1"
   inkscape:version="0.91 r13725"
   sodipodi:docname="search-computer.svg">
  <metadata
     id="metadata10">
    <rdf:RDF>
      <cc:Work
         rdf:about="">
        <dc:format>image/svg+xml</dc:format>
        <dc:type
           rdf:resource="http://purl.org/dc/dcmitype/StillImage" />
        <dc:title></dc:title>
      </cc:Work>
    </rdf:RDF>
  </metadata>
  <defs
     id="defs8" />
  <sodipodi:namedview
     pagecolor="#ffffff"
     bordercolor="#666666"
     borderopacity="1"
     objecttolerance="10"
     gridtolerance="10"
     guidetolerance="10"
     inkscape:pageopacity="0"
     inkscape:pageshadow="2"
     inkscape:window-width="1369"
     inkscape:window-height="840"
     id="namedview6"
     showgrid="false"
     inkscape:zoom="0.13169643"
     inkscape:cx="896"
     inkscape:cy="896"
     inkscape:window-x="1763"
     inkscape:window-y="887"
     inkscape:window-maximized="0"
     inkscape:current-layer="svg2" />
  <path
     d="M 1216,768 Q 1216,583 1084.5,451.5 953,320 768,320 583,320 451.5,451.5 320,583 320,768 320,953 451.5,1084.5 583,1216 768,1216 953,1216 1084.5,1084.5 1216,953 1216,768 Z m 512,832 q 0,52 -38,90 -38,38 -90,38 -54,0 -90,-38 L 1167,1348 Q 988,1472 768,1472 625,1472 494.5,1416.5 364,1361 269.5,1266.5 175,1172 119.5,1041.5 64,911 64,768 64,625 119.5,494.5 175,364 269.5,269.5 364,175 494.5,119.5 625,64 768,64 q 143,0 273.5,55.5 130.5,55.5 225,150 94.5,94.5 150,225 55.5,130.5 55.5,273.5 0,220 -124,399 l 343,343 q 37,37 37,90 z"
     id="path4"
     inkscape:connector-curvature="0" />
  <path
     inkscape:connector-curvature="0"
     d="m 979.45085,415.22036 -412.92204,0 c -37.85119,0 -68.82034,30.93474 -68.82034,68.82034 l 0,516.1525 c 0,18.9945 15.38135,34.4101 34.41018,34.4101 l 0,68.8204 481.74235,0 0,-68.8204 c 19.0288,0 34.4102,-15.4156 34.4102,-34.4101 l 0,-516.1525 c 0,-37.8856 -30.9348,-68.82034 -68.82035,-68.82034 z m -68.82035,516.15254 -137.64066,0 0,-34.41017 137.64066,0 0,34.41017 z m 34.41018,-137.64069 -344.10169,0 0,-275.28135 344.10169,0 0,275.28135 z"
     id="path3" />
</svg>
