<?xml version="1.0" encoding="UTF-8" standalone="no"?>
<!-- Generator: Adobe Illustrator 18.1.0, SVG Export Plug-In . SVG Version: 6.00 Build 0)  -->

<svg
   xmlns:dc="http://purl.org/dc/elements/1.1/"
   xmlns:cc="http://creativecommons.org/ns#"
   xmlns:rdf="http://www.w3.org/1999/02/22-rdf-syntax-ns#"
   xmlns:svg="http://www.w3.org/2000/svg"
   xmlns="http://www.w3.org/2000/svg"
   xmlns:sodipodi="http://sodipodi.sourceforge.net/DTD/sodipodi-0.dtd"
   xmlns:inkscape="http://www.inkscape.org/namespaces/inkscape"
   version="1.1"
   id="User"
   x="0px"
   y="0px"
   viewBox="0 0 20 20"
   style="enable-background:new 0 0 20 20;"
   xml:space="preserve"
   inkscape:version="0.91 r13725"
   sodipodi:docname="disabled-user2.svg"><metadata
     id="metadata9"><rdf:RDF><cc:Work
         rdf:about=""><dc:format>image/svg+xml</dc:format><dc:type
           rdf:resource="http://purl.org/dc/dcmitype/StillImage" /></cc:Work></rdf:RDF></metadata><defs
     id="defs7"><pattern
       y="0"
       x="0"
       height="6"
       width="6"
       patternUnits="userSpaceOnUse"
       id="EMFhbasepattern" /></defs><sodipodi:namedview
     pagecolor="#ffffff"
     bordercolor="#666666"
     borderopacity="1"
     objecttolerance="10"
     gridtolerance="10"
     guidetolerance="10"
     inkscape:pageopacity="0"
     inkscape:pageshadow="2"
     inkscape:window-width="1555"
     inkscape:window-height="955"
     id="namedview5"
     showgrid="false"
     inkscape:zoom="11.8"
     inkscape:cx="10"
     inkscape:cy="13.389831"
     inkscape:window-x="1675"
     inkscape:window-y="826"
     inkscape:window-maximized="0"
     inkscape:current-layer="User" /><g
     id="g3357"><path
       id="path3"
       d="M7.725,2.146c-1.016,0.756-1.289,1.953-1.239,2.59C6.55,5.515,6.708,6.529,6.708,6.529s-0.313,0.17-0.313,0.854  C6.504,9.1,7.078,8.359,7.196,9.112c0.284,1.814,0.933,1.491,0.933,2.481c0,1.649-0.68,2.42-2.803,3.334C3.196,15.845,1,17,1,19v1  h18v-1c0-2-2.197-3.155-4.328-4.072c-2.123-0.914-2.801-1.684-2.801-3.334c0-0.99,0.647-0.667,0.932-2.481  c0.119-0.753,0.692-0.012,0.803-1.729c0-0.684-0.314-0.854-0.314-0.854s0.158-1.014,0.221-1.793c0.065-0.817-0.398-2.561-2.3-3.096  c-0.333-0.34-0.558-0.881,0.466-1.424C9.439,0.112,8.918,1.284,7.725,2.146z" /><path
       style="fill:#ff0000;fill-opacity:1;fill-rule:nonzero;stroke:none"
       d="m 11.536963,18.145619 6.6934,-6.693401 1.585282,1.67335 -6.605332,6.693401 z"
       id="path3344"
       inkscape:connector-curvature="0" /></g><path
     inkscape:connector-curvature="0"
     id="path3342"
     d="m 11.536963,13.125568 1.67335,-1.67335 6.693401,6.605329 -1.76142,1.761422 z"
     style="fill:#ff0000;fill-opacity:1;fill-rule:nonzero;stroke:none" /></svg>