<?xml version="1.0" encoding="UTF-8" standalone="no"?>
<!-- Generator: Adobe Illustrator 18.1.0, SVG Export Plug-In . SVG Version: 6.00 Build 0)  -->

<svg
   xmlns:osb="http://www.openswatchbook.org/uri/2009/osb"
   xmlns:dc="http://purl.org/dc/elements/1.1/"
   xmlns:cc="http://creativecommons.org/ns#"
   xmlns:rdf="http://www.w3.org/1999/02/22-rdf-syntax-ns#"
   xmlns:svg="http://www.w3.org/2000/svg"
   xmlns="http://www.w3.org/2000/svg"
   xmlns:sodipodi="http://sodipodi.sourceforge.net/DTD/sodipodi-0.dtd"
   xmlns:inkscape="http://www.inkscape.org/namespaces/inkscape"
   version="1.1"
   id="User"
   x="0px"
   y="0px"
   viewBox="0 0 20 20"
   style="enable-background:new 0 0 20 20;"
   xml:space="preserve"
   inkscape:version="0.91 r13725"
   sodipodi:docname="disabled-user.svg"><metadata
     id="metadata9"><rdf:RDF><cc:Work
         rdf:about=""><dc:format>image/svg+xml</dc:format><dc:type
           rdf:resource="http://purl.org/dc/dcmitype/StillImage" /></cc:Work></rdf:RDF></metadata><defs
     id="defs7"><linearGradient
       id="linearGradient4899"
       osb:paint="solid"><stop
         style="stop-color:#000000;stop-opacity:1;"
         offset="0"
         id="stop4901" /></linearGradient><linearGradient
       id="linearGradient4863"
       osb:paint="solid"><stop
         style="stop-color:#000000;stop-opacity:1;"
         offset="0"
         id="stop4865" /></linearGradient><pattern
       y="0"
       x="0"
       height="6"
       width="6"
       patternUnits="userSpaceOnUse"
       id="EMFhbasepattern" /></defs><sodipodi:namedview
     pagecolor="#ffffff"
     bordercolor="#666666"
     borderopacity="1"
     objecttolerance="10"
     gridtolerance="10"
     guidetolerance="10"
     inkscape:pageopacity="0"
     inkscape:pageshadow="2"
     inkscape:window-width="1555"
     inkscape:window-height="955"
     id="namedview5"
     showgrid="false"
     inkscape:zoom="11.8"
     inkscape:cx="-4.6186441"
     inkscape:cy="13.389831"
     inkscape:window-x="1675"
     inkscape:window-y="826"
     inkscape:window-maximized="0"
     inkscape:current-layer="User" /><path
     inkscape:connector-curvature="0"
     d="M 6.6683208,2.9105691 C 5.6608837,3.6341946 5.3901847,4.779935 5.4397632,5.3896565 c 0.063461,0.7456405 0.220129,1.7162176 0.220129,1.7162176 0,0 -0.310362,0.1627201 -0.310362,0.8174288 0.108081,1.6434722 0.6772436,0.9342046 0.7942491,1.6549583 0.2816064,1.7363178 0.9251365,1.4271498 0.9251365,2.3747548 0,1.578384 -0.6742688,2.316367 -2.7793759,3.191227 C 2.1774918,16.022931 0,17.12847 0,19.042823 L 0,20 l 17.848293,0 0,-0.957177 c 0,-1.914353 -2.178483,-3.019892 -4.291523,-3.897623 -2.105107,-0.874859 -2.777392,-1.611885 -2.777392,-3.191226 0,-0.947605 0.641547,-0.638437 0.924145,-2.3747562 0.117997,-0.7207536 0.686168,-0.011494 0.796232,-1.6549578 0,-0.6547087 -0.311354,-0.8174287 -0.311354,-0.8174287 0,0 0.156669,-0.9705771 0.219138,-1.7162177 C 12.471991,4.6086004 12.012893,2.9392843 10.126923,2.4271949 9.79673,2.1017549 9.5736263,1.5839223 10.588996,1.0641754 8.3678749,0.96367186 7.851266,2.0854829 6.6683208,2.9105691 Z"
     id="path3" /><g
     id="g4919"
     style="fill:#000000;fill-opacity:1"
     transform="translate(-0.07320554,-5.6355935)"
     inkscape:transform-center-x="-1.0169492"
     inkscape:transform-center-y="-2.2033898"><path
       style="fill:#000000;fill-opacity:1;fill-rule:nonzero;stroke:none;stroke-opacity:1"
       d="m 11.536963,18.145619 6.6934,-6.693401 1.585282,1.67335 -6.605332,6.693401 z"
       id="path3344"
       inkscape:connector-curvature="0" /><path
       style="fill:#000000;fill-opacity:1;fill-rule:nonzero;stroke:none;stroke-opacity:1"
       d="m 11.536963,13.125568 1.67335,-1.67335 6.693401,6.605329 -1.76142,1.761422 z"
       id="path3342"
       inkscape:connector-curvature="0" /></g></svg>