<?xml version="1.0" encoding="UTF-8" standalone="no"?>
<!-- Created with Inkscape (http://www.inkscape.org/) -->

<svg
   xmlns:dc="http://purl.org/dc/elements/1.1/"
   xmlns:cc="http://creativecommons.org/ns#"
   xmlns:rdf="http://www.w3.org/1999/02/22-rdf-syntax-ns#"
   xmlns:svg="http://www.w3.org/2000/svg"
   xmlns="http://www.w3.org/2000/svg"
   xmlns:sodipodi="http://sodipodi.sourceforge.net/DTD/sodipodi-0.dtd"
   xmlns:inkscape="http://www.inkscape.org/namespaces/inkscape"
   width="256"
   height="256"
   id="NCmdLiner"
   version="1.1"
   inkscape:version="0.91 r13725"
   sodipodi:docname="NCmdLiner - Copy.svg">
  <metadata
     id="metadata8">
    <rdf:RDF>
      <cc:Work
         rdf:about="">
        <dc:format>image/svg+xml</dc:format>
        <dc:type
           rdf:resource="http://purl.org/dc/dcmitype/StillImage" />
      </cc:Work>
    </rdf:RDF>
  </metadata>
  <defs
     id="defs6" />
  <sodipodi:namedview
     pagecolor="#ffffff"
     bordercolor="#666666"
     borderopacity="1"
     objecttolerance="10"
     gridtolerance="10"
     guidetolerance="10"
     inkscape:pageopacity="0"
     inkscape:pageshadow="2"
     inkscape:window-width="2393"
     inkscape:window-height="1027"
     id="namedview4"
     showgrid="false"
     inkscape:zoom="0.921875"
     inkscape:cx="-7.0508475"
     inkscape:cy="128"
     inkscape:window-x="929"
     inkscape:window-y="374"
     inkscape:window-maximized="0"
     inkscape:current-layer="NCmdLiner" />
  <path
     style="display:inline;fill:#ffffff"
     d="m 31.818351,200.11482 c -5.348036,-2.78148 -7.240079,-22.64739 -5.429646,-57.0097 1.405322,-26.67318 2.310366,-49.050081 2.312831,-57.183995 0.0012,-3.947582 0.0012,-3.947582 -1.11647,-6.908543 -3.902554,-10.338793 -4.294813,-21.519209 -0.754986,-21.519209 3.034077,0 6.252328,4.591196 9.590313,13.681629 4.961511,13.511835 15.94781,27.085787 37.255602,46.030588 14.326936,12.73811 23.435772,17.11162 29.409715,14.12077 2.01639,-1.0095 4.45591,-4.55109 4.45553,-6.46832 -5.4e-4,-3.14477 2.41924,-23.12551 4.58205,-37.834027 1.32928,-9.039995 2.04639,-14.625432 2.86967,-22.35117 0.97283,-9.129175 1.95151,-10.733615 4.86601,-7.977208 4.04743,3.827895 4.06263,4.087657 1.36269,23.284373 -2.37349,16.875651 -2.80582,20.987132 -3.77473,35.897322 -0.86928,13.37695 -1.24341,19.50178 -2.8547,46.73427 -0.29535,4.99176 -0.74129,11.92658 -0.991,15.41072 -0.45399,6.33478 -0.45399,6.33478 0.65461,7.25565 4.16465,3.4594 0.96495,11.46996 -4.58151,11.46996 -4.7956,0 -6.74377,-19.66827 -4.46806,-45.10872 1.17135,-13.0946 1.1168,-12.0208 0.62031,-12.21132 -0.29084,-0.11161 -1.05703,0.34676 -2.27431,1.36061 C 92.980735,149.5933 78.399401,140.11227 53.781848,108.42695 44.567325,96.566909 39.662819,92.510259 37.642993,95.078049 c -1.243358,1.58067 -1.201094,-0.1005 -1.349269,53.670601 -0.138085,50.11032 -0.150011,51.03007 -0.666498,51.4077 -0.697145,0.50971 -2.792897,0.48686 -3.808875,-0.0415 z m 97.626839,-6.72304 c -2.66475,-0.71777 -3.63565,-1.99953 -3.40888,-4.50031 0.52984,-5.84326 9.56847,-13.53889 11.37613,-9.68582 1.97967,4.21975 29.54607,-12.39354 50.8641,-30.65402 9.23111,-7.90713 29.53063,-27.46828 29.53063,-28.45648 0,-2.05154 -22.6124,-20.05717 -39.64068,-31.564792 -18.3161,-12.377929 -29.96622,-17.641091 -36.05195,-16.287147 -4.35671,0.969277 -5.1853,-0.976066 -2.67446,-6.27905 6.83244,-14.430319 23.66523,-8.163475 64.95639,24.183227 5.17728,4.055781 14.83117,11.330242 19.77739,14.902812 6.28616,4.54036 7.77952,7.19823 7.36055,13.10038 -0.52268,7.36379 -3.59057,11.29062 -22.12586,28.32061 -30.29798,27.83739 -68.21369,50.08542 -79.96336,46.92059 z m -55.870114,-17.0754 c -7.935635,-2.93865 -4.231122,-18.63606 4.988099,-21.13646 0.894886,-0.2427 2.574451,-1.11496 4.16081,-2.16086 6.203475,-4.09 10.534909,-2.0968 10.542596,4.85139 0.0096,8.70467 -13.024855,20.91466 -19.691505,18.44593 z m -1.237837,-69.02174 c -6.036547,-3.15392 -1.006716,-16.945153 8.111837,-22.241753 7.708792,-4.477726 12.861551,-2.48851 12.82553,4.951282 -0.04306,8.89216 -14.368586,20.722461 -20.937367,17.290471 z"
     id="path4741"
     inkscape:connector-curvature="0" />
</svg>
