<?xml version="1.0" encoding="UTF-8" standalone="no"?>
<!-- Created with Inkscape (http://www.inkscape.org/) -->

<svg
   xmlns:dc="http://purl.org/dc/elements/1.1/"
   xmlns:cc="http://creativecommons.org/ns#"
   xmlns:rdf="http://www.w3.org/1999/02/22-rdf-syntax-ns#"
   xmlns:svg="http://www.w3.org/2000/svg"
   xmlns="http://www.w3.org/2000/svg"
   xmlns:sodipodi="http://sodipodi.sourceforge.net/DTD/sodipodi-0.dtd"
   xmlns:inkscape="http://www.inkscape.org/namespaces/inkscape"
   width="256"
   height="256"
   id="svg2"
   version="1.1"
   inkscape:version="0.91 r13725"
   sodipodi:docname="NCmdLiner.svg"
   inkscape:export-filename="C:\MyData\Dev\NCmdLiner\src\NCmdLiner.Graphics\NCmdLinerIcon.png"
   inkscape:export-xdpi="90"
   inkscape:export-ydpi="90">
  <defs
     id="defs4" />
  <sodipodi:namedview
     id="base"
     pagecolor="#ffffff"
     bordercolor="#666666"
     borderopacity="1.0"
     inkscape:pageopacity="0.0"
     inkscape:pageshadow="2"
     inkscape:zoom="2.8"
     inkscape:cx="70.996627"
     inkscape:cy="133.46297"
     inkscape:document-units="px"
     inkscape:current-layer="layer1"
     showgrid="false"
     inkscape:window-width="2586"
     inkscape:window-height="1354"
     inkscape:window-x="149"
     inkscape:window-y="549"
     inkscape:window-maximized="0"
     inkscape:showpageshadow="true"
     showborder="true" />
  <metadata
     id="metadata7">
    <rdf:RDF>
      <cc:Work
         rdf:about="">
        <dc:format>image/svg+xml</dc:format>
        <dc:type
           rdf:resource="http://purl.org/dc/dcmitype/StillImage" />
        <dc:title></dc:title>
        <cc:license
           rdf:resource="" />
      </cc:Work>
    </rdf:RDF>
  </metadata>
  <g
     inkscape:groupmode="layer"
     id="layer1"
     inkscape:label="Icon"
     sodipodi:insensitive="true">
    <path
       style="display:inline;fill:#000000"
       d="m 19.590507,209.28298 c -6.027947,-3.1351 -8.160531,-25.52662 -6.119932,-64.2575 1.583984,-30.06422 2.604089,-55.285962 2.606867,-64.453959 0.0014,-4.449449 0.0014,-4.449449 -1.258409,-7.786845 -4.398697,-11.653193 -4.8408253,-24.255007 -0.85097,-24.255007 3.419808,0 7.047204,5.174888 10.809557,15.421013 5.592281,15.229633 17.975299,30.529279 41.992011,51.882588 16.14836,14.35754 26.415228,19.28707 33.148657,15.91598 2.272732,-1.13784 5.022402,-5.12968 5.021972,-7.29066 -6.1e-4,-3.54457 2.7268,-26.065517 5.16458,-42.643967 1.49828,-10.189275 2.30656,-16.484805 3.2345,-25.192738 1.09651,-10.289792 2.19961,-12.098209 5.48464,-8.991373 4.56199,4.314547 4.57913,4.607333 1.53594,26.244581 -2.67524,19.021103 -3.16254,23.655284 -4.25463,40.461047 -0.97979,15.0776 -1.40148,21.9811 -3.21762,52.67573 -0.3329,5.62638 -0.83554,13.44284 -1.11699,17.36993 -0.51171,7.14014 -0.51171,7.14014 0.73783,8.17808 4.69411,3.8992 1.08763,12.92817 -5.16397,12.92817 -5.40528,0 -7.601132,-22.16875 -5.0361,-50.84352 1.32026,-14.75935 1.25878,-13.54904 0.69917,-13.76378 -0.32782,-0.1258 -1.19141,0.39084 -2.56345,1.53359 -11.915523,9.92418 -28.350623,-0.7622 -56.097875,-36.47577 C 33.960294,92.570736 28.432264,87.998346 26.155652,90.892589 c -1.401429,1.78163 -1.353792,-0.11328 -1.520805,60.493901 -0.15564,56.48098 -0.169082,57.51766 -0.751232,57.9433 -0.785775,0.57451 -3.147966,0.54876 -4.293108,-0.0468 z m 110.038413,-7.57776 c -3.00352,-0.80902 -4.09785,-2.25373 -3.84226,-5.07244 0.59721,-6.58614 10.78494,-15.26013 12.82241,-10.91721 2.23136,4.75622 33.30235,-13.96917 57.3306,-34.55115 10.40469,-8.91239 33.28494,-30.9604 33.28494,-32.07424 0,-2.31235 -25.48717,-22.607088 -44.68031,-35.577707 -20.64468,-13.95157 -33.77591,-19.883852 -40.63534,-18.357777 -4.91059,1.092504 -5.84452,-1.100156 -3.01447,-7.077324 7.70107,-16.264886 26.67386,-9.20132 73.21448,27.257709 5.83548,4.5714 16.7167,12.770692 22.29175,16.797449 7.08534,5.11759 8.76855,8.11336 8.29632,14.76587 -0.58914,8.29997 -4.04705,12.72603 -24.93879,31.92108 -34.14985,31.37644 -76.88589,56.45293 -90.12933,52.88574 z M 66.655882,182.45898 c -8.944515,-3.31225 -4.769036,-21.00532 5.62225,-23.8236 1.008656,-0.27355 2.901748,-1.25671 4.689786,-2.43557 6.99214,-4.60998 11.874241,-2.36338 11.882906,5.46815 0.01085,9.81133 -14.680742,23.57361 -22.194942,20.79102 z m -1.395207,-77.79667 c -6.80399,-3.55489 -1.134702,-19.099436 9.143118,-25.069408 8.688832,-5.046992 14.496676,-2.804881 14.456076,5.580752 -0.04854,10.022648 -16.195305,23.356966 -23.599194,19.488656 z"
       id="path4741"
       inkscape:connector-curvature="0" />
  </g>
</svg>
