<?xml version="1.0" encoding="UTF-8" standalone="no"?>
<svg
   xmlns:dc="http://purl.org/dc/elements/1.1/"
   xmlns:cc="http://creativecommons.org/ns#"
   xmlns:rdf="http://www.w3.org/1999/02/22-rdf-syntax-ns#"
   xmlns:svg="http://www.w3.org/2000/svg"
   xmlns="http://www.w3.org/2000/svg"
   xmlns:sodipodi="http://sodipodi.sourceforge.net/DTD/sodipodi-0.dtd"
   xmlns:inkscape="http://www.inkscape.org/namespaces/inkscape"
   width="1792"
   height="1792"
   viewBox="0 0 1792 1792"
   id="svg2"
   version="1.1"
   inkscape:version="0.91 r13725"
   sodipodi:docname="search-user.svg">
  <metadata
     id="metadata10">
    <rdf:RDF>
      <cc:Work
         rdf:about="">
        <dc:format>image/svg+xml</dc:format>
        <dc:type
           rdf:resource="http://purl.org/dc/dcmitype/StillImage" />
        <dc:title />
      </cc:Work>
    </rdf:RDF>
  </metadata>
  <defs
     id="defs8" />
  <sodipodi:namedview
     pagecolor="#ffffff"
     bordercolor="#666666"
     borderopacity="1"
     objecttolerance="10"
     gridtolerance="10"
     guidetolerance="10"
     inkscape:pageopacity="0"
     inkscape:pageshadow="2"
     inkscape:window-width="1369"
     inkscape:window-height="840"
     id="namedview6"
     showgrid="false"
     inkscape:zoom="0.13169643"
     inkscape:cx="-413.8305"
     inkscape:cy="896.00001"
     inkscape:window-x="2130"
     inkscape:window-y="887"
     inkscape:window-maximized="0"
     inkscape:current-layer="svg2" />
  <path
     d="M 1216,768 Q 1216,583 1084.5,451.5 953,320 768,320 583,320 451.5,451.5 320,583 320,768 320,953 451.5,1084.5 583,1216 768,1216 953,1216 1084.5,1084.5 1216,953 1216,768 Z m 512,832 q 0,52 -38,90 -38,38 -90,38 -54,0 -90,-38 L 1167,1348 Q 988,1472 768,1472 625,1472 494.5,1416.5 364,1361 269.5,1266.5 175,1172 119.5,1041.5 64,911 64,768 64,625 119.5,494.5 175,364 269.5,269.5 364,175 494.5,119.5 625,64 768,64 q 143,0 273.5,55.5 130.5,55.5 225,150 94.5,94.5 150,225 55.5,130.5 55.5,273.5 0,220 -124,399 l 343,343 q 37,37 37,90 z"
     id="path4"
     inkscape:connector-curvature="0" />
  <path
     inkscape:connector-curvature="0"
     d="m 681.39786,437.80046 c -35.71148,26.57272 -45.3072,68.64618 -43.54974,91.03615 2.24956,27.38116 7.80311,63.02233 7.80311,63.02233 0,0 -11.00166,5.97536 -11.00166,30.01733 3.83124,60.351 24.00682,34.30552 28.15442,60.77279 9.98235,63.76046 32.79411,52.40731 32.79411,87.20491 0,57.96086 -23.90139,85.06082 -98.52292,117.18709 -74.86758,32.26686 -152.055,72.86407 -152.055,143.16224 l 0,35.1491 632.68372,0 0,-35.1491 c 0,-70.29817 -77.2225,-110.89538 -152.12528,-143.12709 -74.62152,-32.12628 -98.45261,-59.19108 -98.45261,-117.1871 0,-34.7976 22.74147,-23.44443 32.75896,-87.2049 4.18274,-26.46726 24.32318,-0.42178 28.22472,-60.77279 0,-24.04199 -11.03682,-30.01732 -11.03682,-30.01732 0,0 5.55357,-35.6412 7.76795,-63.02233 2.28469,-28.71682 -13.98933,-90.01683 -80.84292,-108.8216 -11.70465,-11.9507 -19.61318,-30.96636 16.37948,-50.05233 -78.73397,-3.69064 -97.04666,37.50409 -138.97952,67.80262 z"
     id="path3" />
</svg>
