<?xml version="1.0" encoding="UTF-8" standalone="no"?>
<svg
   xmlns:dc="http://purl.org/dc/elements/1.1/"
   xmlns:cc="http://creativecommons.org/ns#"
   xmlns:rdf="http://www.w3.org/1999/02/22-rdf-syntax-ns#"
   xmlns:svg="http://www.w3.org/2000/svg"
   xmlns="http://www.w3.org/2000/svg"
   xmlns:sodipodi="http://sodipodi.sourceforge.net/DTD/sodipodi-0.dtd"
   xmlns:inkscape="http://www.inkscape.org/namespaces/inkscape"
   width="1792"
   height="1792"
   viewBox="0 0 1792 1792"
   id="svg2"
   version="1.1"
   inkscape:version="0.91 r13725"
   sodipodi:docname="search.svg">
  <metadata
     id="metadata10">
    <rdf:RDF>
      <cc:Work
         rdf:about="">
        <dc:format>image/svg+xml</dc:format>
        <dc:type
           rdf:resource="http://purl.org/dc/dcmitype/StillImage" />
      </cc:Work>
    </rdf:RDF>
  </metadata>
  <defs
     id="defs8" />
  <sodipodi:namedview
     pagecolor="#ffffff"
     bordercolor="#666666"
     borderopacity="1"
     objecttolerance="10"
     gridtolerance="10"
     guidetolerance="10"
     inkscape:pageopacity="0"
     inkscape:pageshadow="2"
     inkscape:window-width="1721"
     inkscape:window-height="1057"
     id="namedview6"
     showgrid="false"
     inkscape:zoom="0.13169643"
     inkscape:cx="896"
     inkscape:cy="896"
     inkscape:window-x="1619"
     inkscape:window-y="633"
     inkscape:window-maximized="0"
     inkscape:current-layer="svg2" />
  <path
     d="M 1216,768 Q 1216,583 1084.5,451.5 953,320 768,320 583,320 451.5,451.5 320,583 320,768 320,953 451.5,1084.5 583,1216 768,1216 953,1216 1084.5,1084.5 1216,953 1216,768 Z m 512,832 q 0,52 -38,90 -38,38 -90,38 -54,0 -90,-38 L 1167,1348 Q 988,1472 768,1472 625,1472 494.5,1416.5 364,1361 269.5,1266.5 175,1172 119.5,1041.5 64,911 64,768 64,625 119.5,494.5 175,364 269.5,269.5 364,175 494.5,119.5 625,64 768,64 q 143,0 273.5,55.5 130.5,55.5 225,150 94.5,94.5 150,225 55.5,130.5 55.5,273.5 0,220 -124,399 l 343,343 q 37,37 37,90 z"
     id="path4"
     inkscape:connector-curvature="0" />
  <path
     style="display:inline;fill:#000000;fill-opacity:1;stroke-width:0.2;stroke-linejoin:round"
     d="m 545.52351,566.27217 0,-163.5518 425.23463,0 0,163.5518 -65.42068,0 0,-98.13109 -294.39323,0 0,98.13109 -65.42071,0 z m -147.19662,16.35517 719.62801,0 0,376.16911 -130.84154,0 0,-81.77588 49.06564,0 0,-212.61733 -556.0762,0 0,212.61733 49.06553,0 0,81.77588 -130.84144,0 0,-376.16911 z m 147.19662,179.90697 49.06553,0 0,212.61733 114.48626,0 0,114.48636 212.61728,0 0,-327.10369 49.06556,0 0,376.16909 -294.3932,0 -130.84143,-130.8414 0,-245.32769 z m 343.45878,261.68289 -130.84143,0 0,-49.06556 130.84143,0 0,49.06556 z m 0,-98.13112 -261.68287,0 0,-49.06551 261.68287,0 0,49.06551 z m 0,-98.13105 -261.68287,0 0,-49.06553 261.68287,0 0,49.06553 z"
     id="path4-2"
     inkscape:connector-curvature="0" />
</svg>
